<svg xmlns="http://www.w3.org/2000/svg" viewBox="0 0 168 28" fill="none" role="img" aria-label="BOND 2.0">
  <!-- B -->
  <path fill="currentColor" d="M2 2.2h10.4c3.55 0 5.85 1.85 5.85 4.55 0 1.7-.9 3.05-2.45 3.8v.1c1.95.7 3.15 2.2 3.15 4.35 0 3.05-2.5 5.1-6.35 5.1H2V2.2zm5.05 8.05h4.85c1.7 0 2.7-.85 2.7-2.15s-1-2.1-2.7-2.1H7.05v4.25zm0 8.55h5.35c1.95 0 3.1-.95 3.1-2.45s-1.15-2.4-3.15-2.4H7.05v4.85z"/>
  <!-- Pill O -->
  <rect x="27.2" y="5.4" width="28.5" height="17.2" rx="8.6" fill="currentColor"/>
  <!-- N -->
  <path fill="currentColor" d="M62.2 2.2h5.2l9.55 14.9V2.2h4.85v23.6h-5.2L66.95 10.7v15.1H62.2V2.2z"/>
  <!-- D -->
  <path fill="currentColor" d="M86.4 2.2h11.1c7.05 0 11.45 4.15 11.45 11.8S104.55 25.8 97.5 25.8H86.4V2.2zm5.05 19.55h5.55c4.35 0 6.85-2.55 6.85-7.75s-2.5-7.75-6.85-7.75h-5.55v15.5z"/>
  <!-- 2.0 -->
  <text x="117" y="24.2" fill="currentColor" font-family="Inter, Helvetica Neue, Arial, sans-serif" font-size="15.5" font-weight="450" letter-spacing="0.02em">2.0</text>
</svg>
